<?xml version="1.0" encoding="utf-8"?>
<!-- Generator: Adobe Illustrator 18.1.1, SVG Export Plug-In . SVG Version: 6.00 Build 0)  -->
<!DOCTYPE svg PUBLIC "-//W3C//DTD SVG 1.1//EN" "http://www.w3.org/Graphics/SVG/1.1/DTD/svg11.dtd">
<svg version="1.1" id="Layer_1" xmlns="http://www.w3.org/2000/svg" xmlns:xlink="http://www.w3.org/1999/xlink" x="0px" y="0px"
	 viewBox="95 -95 500 500" enable-background="new 95 -95 500 500" xml:space="preserve">
<g id="max_width__x2F__height" display="none">
	<path display="inline" d="M594-94v498H96V-94H594 M595-95H95v500h500V-95L595-95z"/>
</g>
<g id="androd">
	<path fill="#FFFFFF" d="M396.8-5.7L416.9-35c1.2-1.7,0.9-4-0.7-5.1c-1.6-1.1-3.8-0.5-5,1.2l-21,30.4c-13.8-5.4-29.1-8.5-45.3-8.5
		c-16.2,0-31.5,3-45.3,8.5l-20.9-30.4c-1.2-1.7-3.4-2.3-5-1.2c-1.6,1.1-1.9,3.4-0.7,5.1l20.2,29.3c-32.1,14.9-54.5,43.3-57.4,76.3
		h218.3C451.3,37.6,428.8,9.2,396.8-5.7z M299.4,40.4c-6.7,0-12.1-5.4-12.1-12.1c0-6.7,5.4-12.1,12.1-12.1c6.7,0,12.1,5.4,12.1,12.1
		C311.5,35,306.1,40.4,299.4,40.4z M390.6,40.4c-6.7,0-12.1-5.4-12.1-12.1c0-6.7,5.4-12.1,12.1-12.1c6.7,0,12.1,5.4,12.1,12.1
		C402.7,35,397.3,40.4,390.6,40.4z"/>
	<path fill="#FFFFFF" d="M221.8,208.6c0,13.5-10.9,24.4-24.4,24.4l0,0c-13.4,0-24.4-10.9-24.4-24.4v-98.5
		c0-13.4,10.9-24.4,24.4-24.4l0,0c13.5,0,24.4,10.9,24.4,24.4C221.8,110.1,221.8,208.6,221.8,208.6z"/>
	<path fill="#FFFFFF" d="M235.8,86.5v177.9c0,10.6,8.6,19.1,19.1,19.1h22.6v54.7c0,13.5,10.9,24.4,24.4,24.4
		c13.5,0,24.4-10.9,24.4-24.4v-54.7h37.4v54.7c0,13.5,10.9,24.4,24.4,24.4s24.4-10.9,24.4-24.4v-54.7H435c10.6,0,19.1-8.6,19.1-19.1
		V86.5H235.8z"/>
	<path fill="#FFFFFF" d="M468.2,208.6c0,13.5,10.9,24.4,24.4,24.4l0,0c13.5,0,24.4-10.9,24.4-24.4v-98.5c0-13.4-10.9-24.4-24.4-24.4
		l0,0c-13.5,0-24.4,10.9-24.4,24.4V208.6z"/>
</g>
</svg>
