<?xml version="1.0" encoding="utf-8"?>
<!-- Generator: Adobe Illustrator 18.1.1, SVG Export Plug-In . SVG Version: 6.00 Build 0)  -->
<!DOCTYPE svg PUBLIC "-//W3C//DTD SVG 1.1//EN" "http://www.w3.org/Graphics/SVG/1.1/DTD/svg11.dtd">
<svg version="1.1" id="Layer_1" xmlns="http://www.w3.org/2000/svg" xmlns:xlink="http://www.w3.org/1999/xlink" x="0px" y="0px"
	 viewBox="95 -95 500 500" enable-background="new 95 -95 500 500" xml:space="preserve">
<g id="max_width__x2F__height" display="none">
	<path display="inline" d="M594-94v498H96V-94H594 M595-95H95v500h500V-95L595-95z"/>
</g>
<g>
	<title>Layer 1</title>
	<g id="svg_1">
		<path fill="#FFFFFF" d="M451.9,164.6c0.6,67.5,59.2,90,59.9,90.2c-0.5,1.6-9.4,32-30.9,63.4c-18.6,27.2-37.9,54.2-68.3,54.8
			c-29.9,0.6-39.5-17.7-73.6-17.7c-34.1,0-44.8,17.1-73.1,18.3c-29.3,1.1-51.7-29.4-70.4-56.4c-38.3-55.4-67.6-156.5-28.3-224.7
			c19.5-33.9,54.4-55.3,92.3-55.9c28.8-0.5,56,19.4,73.6,19.4c17.6,0,50.6-24,85.4-20.4c14.5,0.6,55.4,5.9,81.6,44.2
			C497.9,81,451.4,108.2,451.9,164.6 M395.7-1.2c15.6-18.9,26.1-45.1,23.2-71.2c-22.4,0.9-49.6,15-65.7,33.8
			c-14.4,16.7-27.1,43.4-23.7,69C354.6,32.4,380.2,17.7,395.7-1.2"/>
	</g>
</g>
</svg>
