<?xml version="1.0" encoding="utf-8"?>
<!-- Generator: Adobe Illustrator 18.1.1, SVG Export Plug-In . SVG Version: 6.00 Build 0)  -->
<!DOCTYPE svg PUBLIC "-//W3C//DTD SVG 1.1//EN" "http://www.w3.org/Graphics/SVG/1.1/DTD/svg11.dtd">
<svg version="1.1" xmlns="http://www.w3.org/2000/svg" xmlns:xlink="http://www.w3.org/1999/xlink" x="0px" y="0px"
	 viewBox="0 0 389.3 151.3" enable-background="new 0 0 389.3 151.3" xml:space="preserve">
<g id="Layer_1">
	<g>
		<path d="M-578.9,943.4l-5.7,33.4c-0.8,5.8-3.2,10.3-7.2,13.7c-3.9,3.3-8.9,4.9-14.9,4.9c-3.7-0.1-7-0.9-9.7-2.4
			c-2.7-1.5-4.8-3.7-6.1-6.5c-1.3-2.8-1.7-6-1.3-9.6l5.7-33.4h12.1l-5.7,33.5c-0.1,1.2-0.2,2.3-0.1,3.3c0.1,1.7,0.7,3.1,1.6,4
			c1,1,2.3,1.5,4.1,1.5c5.2,0.2,8.3-2.8,9.3-9l5.7-33.5H-578.9z"/>
		<path d="M-556.2,960.3l10.8-16.9h14.3l-18.2,25.9l10,25.3h-13.3l-5.6-17.3l-11,17.3h-14.4l18.6-26.3l-9.7-24.9h13.2L-556.2,960.3z
			"/>
		<path d="M-409,952.9h-94.9l-7.2,41.7h-12.1l7.2-41.7h-14.7l1.7-9.5h121.6L-409,952.9z"/>
		<path d="M-476.5,955.8c3.4,0,6.3,0.9,8.8,2.5c2.5,1.7,4.3,4,5.5,6.9s1.6,6.2,1.2,9.8l-0.1,0.8c-0.7,5.8-2.8,10.5-6.5,14.1
			c-3.7,3.6-8.2,5.3-13.6,5.2c-3.4,0-6.3-0.9-8.8-2.5c-2.5-1.6-4.3-3.9-5.5-6.8c-1.2-2.9-1.6-6.2-1.3-9.8c0.6-6.2,2.7-11.2,6.4-14.9
			C-486.6,957.6-482,955.8-476.5,955.8z M-485.2,976.2l-0.1,2.1c-0.3,5.2,1.3,7.9,4.8,8c4.5,0.1,7.2-3.5,7.9-11.1l0.1-3.2
			c0-2.1-0.3-3.8-1.2-5c-0.8-1.3-2.1-1.9-3.7-1.9c-2.1-0.1-3.9,0.8-5.3,2.6C-483.9,969.4-484.8,972.3-485.2,976.2z"/>
		<path d="M-437,955.8c3.4,0,6.3,0.9,8.8,2.5c2.5,1.7,4.3,4,5.5,6.9s1.6,6.2,1.2,9.8l-0.1,0.8c-0.7,5.8-2.8,10.5-6.5,14.1
			c-3.7,3.6-8.2,5.3-13.6,5.2c-3.4,0-6.3-0.9-8.8-2.5c-2.5-1.6-4.3-3.9-5.5-6.8c-1.2-2.9-1.6-6.2-1.3-9.8c0.6-6.2,2.7-11.2,6.4-14.9
			C-447,957.6-442.4,955.8-437,955.8z M-445.6,976.2l-0.1,2.1c-0.3,5.2,1.3,7.9,4.8,8c4.5,0.1,7.2-3.5,7.9-11.1l0.1-3.2
			c0-2.1-0.3-3.8-1.2-5c-0.8-1.3-2.1-1.9-3.7-1.9c-2.1-0.1-3.9,0.8-5.3,2.6C-444.3,969.4-445.2,972.3-445.6,976.2z"/>
		<path d="M-405.3,985.1h20.8l-1.7,9.5H-419l8.9-51.2h12.1L-405.3,985.1z"/>
		<path d="M-347.7,952.9h-14.9l-7.2,41.7h-12.1l7.2-41.7h-21.7l1.7-9.5h48.6L-347.7,952.9z"/>
		<path d="M-336.8,994.6h-12l8.9-51.2h12L-336.8,994.6z"/>
		<path d="M-303.8,943.4l4.9,35.5l17.2-35.5h16l-8.9,51.2h-12.1l2.2-12.6l5.2-23.1l-17.9,35.7h-8l-5.8-37l-3.2,25.7l-2,11.4h-12
			l8.9-51.2H-303.8z"/>
		<path d="M-232.1,972.9h-18.8l-2.1,12.2h22.3l-1.7,9.5h-34.3l8.9-51.2h34.3l-1.7,9.5h-22.3l-1.9,10.8h18.8L-232.1,972.9z"/>
	</g>
	<rect x="214.8" y="990.4" fill="#A85BA4" width="26.9" height="1485.6"/>
	<rect x="241.6" y="990.4" fill="#AE5B9E" width="26.9" height="1485.6"/>
	<rect x="268.5" y="990.4" fill="#B35A98" width="26.9" height="1485.6"/>
	<rect x="295.4" y="990.4" fill="#B95A92" width="26.9" height="1485.6"/>
	<rect x="322.3" y="990.4" fill="#BF5A8C" width="26.9" height="1485.6"/>
	<rect x="349.2" y="990.4" fill="#C55986" width="26.9" height="1485.6"/>
	<rect x="376.1" y="990.4" fill="#CA587F" width="26.9" height="1485.6"/>
	<rect x="403" y="990.4" fill="#CF5779" width="26.9" height="1485.6"/>
	<rect x="429.9" y="990.4" fill="#D55773" width="26.9" height="1485.6"/>
	<rect x="456.8" y="990.4" fill="#DA576D" width="26.9" height="1485.6"/>
	<rect x="483.7" y="990.4" fill="#E05667" width="26.9" height="1485.6"/>
	<rect x="510.6" y="990.4" fill="#E55661" width="26.9" height="1485.6"/>
	<rect x="537.4" y="990.4" fill="#EA555A" width="26.9" height="1485.6"/>
	<rect x="564.3" y="990.4" fill="#F05555" width="26.9" height="1485.6"/>
	<polyline points="-537.9,994.6 -552.6,994.6 -550.9,985.1 -514.3,985.1 -515.8,994.6 	"/>
	<text transform="matrix(1 0 0 1 -530.5732 887.5)" fill="#FFFFFF" font-family="'Arial-Black'" font-size="72">UXTOOLTIME</text>
	
		<text transform="matrix(1 0 0 1 -525.0732 881)" fill="#FFFFFF" stroke="#EF4481" stroke-width="2" stroke-miterlimit="10" font-family="'Arial-Black'" font-size="72">UXTOOLTIME</text>
	<text transform="matrix(1 0 0 1 -523.0732 742)" fill="#FFFFFF" font-family="'SegoeUI-BoldItalic'" font-size="72">UXTOOLTIME</text>
	<text transform="matrix(1 0 0 1 213.9932 482.3333)"><tspan x="0" y="0" font-family="'Roboto-Thin'" font-size="72">TOOL</tspan><tspan x="0" y="62" font-family="'Roboto-Thin'" font-size="72">TIME</tspan></text>
	<text transform="matrix(1 0 0 1 7 544.7606)" font-family="'Roboto-Medium'" font-size="160">UX</text>
	<rect x="5" y="413.7" fill="none" stroke="#000000" stroke-width="4" stroke-miterlimit="10" width="395" height="147.3"/>
	<g>
		<g>
			<path fill="#FFFFFF" d="M252.1,204.7h-18.6V254h-1.9v-49.3h-18.6v-1.9h39.2V204.7z"/>
			<path fill="#FFFFFF" d="M343.9,252.1h28.3v1.9H342v-51.2h1.9V252.1z"/>
			<path fill="#FFFFFF" d="M252.1,266.7h-18.6V316h-1.9v-49.3h-18.6v-1.9h39.2V266.7z"/>
			<path fill="#FFFFFF" d="M264.4,316h-1.9v-51.2h1.9V316z"/>
			<path fill="#FFFFFF" d="M282.5,264.8l21.1,48.4l21.1-48.4h2.8V316h-1.9v-48.4L304.4,316h-1.5l-21.1-48.1V316h-1.9v-51.2H282.5z"
				/>
			<path fill="#FFFFFF" d="M369.1,290.6h-25.7v23.5h29.2v1.9h-31.1v-51.2h31.1v1.9h-29.2v22h25.7V290.6z"/>
		</g>
	</g>
	<text transform="matrix(1 0 0 1 4 316.4272)" fill="#FFFFFF" font-family="'Roboto-Medium'" font-size="160">UX</text>
	<rect x="2" y="185.3" fill="none" stroke="#FFFFFF" stroke-width="4" stroke-miterlimit="10" width="395" height="147.3"/>
	<polygon fill="none" stroke="#FFFFFF" stroke-width="2" stroke-miterlimit="10" points="296.9,253 284.6,228.7 296.9,204.4 
		321.6,204.4 334,228.7 321.6,253 	"/>
	<polygon fill="none" stroke="#FFFFFF" stroke-width="2" stroke-miterlimit="10" points="262.2,253 249.8,228.7 262.2,204.4 
		286.9,204.4 299.2,228.7 286.9,253 	"/>
	<g>
		<g>
			<g>
				<path fill="#FFFFFF" d="M253.1,21.4h-18.6v49.3h-1.9V21.4h-18.6v-1.9h39.2V21.4z"/>
				<path fill="#FFFFFF" d="M344.9,68.8h28.3v1.9H343V19.5h1.9V68.8z"/>
				<path fill="#FFFFFF" d="M253.1,83.4h-18.6v49.3h-1.9V83.4h-18.6v-1.9h39.2V83.4z"/>
				<path fill="#FFFFFF" d="M265.4,132.7h-1.9V81.5h1.9V132.7z"/>
				<path fill="#FFFFFF" d="M283.5,81.5l21.1,48.4l21.1-48.4h2.8v51.2h-1.9V84.3l-21.2,48.4h-1.5l-21.1-48.1v48.1h-1.9V81.5H283.5z"
					/>
				<path fill="#FFFFFF" d="M370.1,107.3h-25.7v23.5h29.2v1.9h-31.1V81.5h31.1v1.9h-29.2v22h25.7V107.3z"/>
			</g>
		</g>
		<g>
			<path fill="#FFFFFF" d="M99.8,19.3v76c0,12.1-3.9,21.7-11.6,28.7c-7.7,7.1-18,10.6-30.9,10.6c-13,0-23.4-3.5-31-10.4
				s-11.5-16.6-11.5-28.9V19.3h19.7v76c0,7.6,1.9,13.4,5.8,17.4c3.9,4,9.5,6,17,6c15.2,0,22.8-8,22.8-24V19.3H99.8z"/>
			<path fill="#FFFFFF" d="M160,60.4l23.9-41.1h22.8l-34.4,56.4l35.2,57.3h-23L160,91.4l-24.5,41.7h-23l35.2-57.3l-34.5-56.4h22.8
				L160,60.4z"/>
		</g>
		<g>
			<path fill="#FFFFFF" d="M389.3,151.3H0V0h389.3V151.3z M3.9,147.3h381.5V4H3.9V147.3z"/>
		</g>
		<g>
			<path fill="#FFFFFF" d="M323.2,70.6h-25.9l-12.9-25.3L297.3,20h25.9l12.9,25.3L323.2,70.6z M298.5,68.6H322l11.8-23.3L322,22
				h-23.5l-11.8,23.3L298.5,68.6z"/>
		</g>
		<g>
			<path fill="#FFFFFF" d="M288.5,70.6h-25.9l-12.9-25.3L262.5,20h25.9l12.9,25.3L288.5,70.6z M263.8,68.6h23.5l11.8-23.3L287.3,22
				h-23.5l-11.8,23.3L263.8,68.6z"/>
		</g>
	</g>
</g>
<g id="Layer_2">
	
		<rect x="1028" y="436.6" transform="matrix(0.7071 -0.7071 0.7071 0.7071 -528.944 1081.8715)" fill="#A85BA4" width="26.9" height="1485.6"/>
	
		<rect x="1047" y="417.6" transform="matrix(0.7071 -0.7071 0.7071 0.7071 -509.9294 1089.7476)" fill="#AE5B9E" width="26.9" height="1485.6"/>
	
		<rect x="1066" y="398.6" transform="matrix(0.7071 -0.7071 0.7071 0.7071 -490.9148 1097.6237)" fill="#B35A98" width="26.9" height="1485.6"/>
	
		<rect x="1085.1" y="379.6" transform="matrix(0.7071 -0.7071 0.7071 0.7071 -471.9001 1105.4998)" fill="#B95A92" width="26.9" height="1485.6"/>
	
		<rect x="1104.1" y="360.6" transform="matrix(0.7071 -0.7071 0.7071 0.7071 -452.8855 1113.376)" fill="#BF5A8C" width="26.9" height="1485.6"/>
	
		<rect x="1123.1" y="341.5" transform="matrix(0.7071 -0.7071 0.7071 0.7071 -433.8708 1121.2521)" fill="#C55986" width="26.9" height="1485.6"/>
	
		<rect x="1142.1" y="322.5" transform="matrix(0.7071 -0.7071 0.7071 0.7071 -414.8562 1129.1282)" fill="#CA587F" width="26.9" height="1485.6"/>
	
		<rect x="1161.1" y="303.5" transform="matrix(0.7071 -0.7071 0.7071 0.7071 -395.8416 1137.0043)" fill="#CF5779" width="26.9" height="1485.6"/>
	
		<rect x="1180.1" y="284.5" transform="matrix(0.7071 -0.7071 0.7071 0.7071 -376.8269 1144.8804)" fill="#D55773" width="26.9" height="1485.6"/>
	
		<rect x="1199.1" y="265.5" transform="matrix(0.7071 -0.7071 0.7071 0.7071 -357.8123 1152.7565)" fill="#DA576D" width="26.9" height="1485.6"/>
	
		<rect x="1218.2" y="246.5" transform="matrix(0.7071 -0.7071 0.7071 0.7071 -338.7977 1160.6327)" fill="#E05667" width="26.9" height="1485.6"/>
	
		<rect x="1237.2" y="227.5" transform="matrix(0.7071 -0.7071 0.7071 0.7071 -319.783 1168.5088)" fill="#E55661" width="26.9" height="1485.6"/>
	
		<rect x="1256.2" y="208.4" transform="matrix(0.7071 -0.7071 0.7071 0.7071 -300.7684 1176.3849)" fill="#EA555A" width="26.9" height="1485.6"/>
	
		<rect x="1275.2" y="189.4" transform="matrix(0.7071 -0.7071 0.7071 0.7071 -281.7538 1184.261)" fill="#F05555" width="26.9" height="1485.6"/>
	
		<rect x="974" y="436.6" transform="matrix(-0.7071 -0.7071 0.7071 -0.7071 851.6418 2711.6169)" opacity="0.54" fill="#FFFFFF" width="26.9" height="1485.6"/>
	
		<rect x="955" y="417.6" transform="matrix(-0.7071 -0.7071 0.7071 -0.7071 832.6274 2665.7117)" opacity="0.5" fill="#FFFFFF" width="26.9" height="1485.6"/>
	
		<rect x="935.9" y="398.6" transform="matrix(-0.7071 -0.7071 0.7071 -0.7071 813.6127 2619.8062)" opacity="0.46" fill="#FFFFFF" width="26.9" height="1485.6"/>
	
		<rect x="916.9" y="379.6" transform="matrix(-0.7071 -0.7071 0.7071 -0.7071 794.5981 2573.9006)" opacity="0.42" fill="#FFFFFF" width="26.9" height="1485.6"/>
	
		<rect x="897.9" y="360.6" transform="matrix(-0.7071 -0.7071 0.7071 -0.7071 775.5834 2527.9954)" opacity="0.38" fill="#FFFFFF" width="26.9" height="1485.6"/>
	
		<rect x="878.9" y="341.5" transform="matrix(-0.7071 -0.7071 0.7071 -0.7071 756.5688 2482.0898)" opacity="0.34" fill="#FFFFFF" width="26.9" height="1485.6"/>
	
		<rect x="859.9" y="322.5" transform="matrix(-0.7071 -0.7071 0.7071 -0.7071 737.5541 2436.1846)" opacity="0.3" fill="#FFFFFF" width="26.9" height="1485.6"/>
	
		<rect x="840.9" y="303.5" transform="matrix(-0.7071 -0.7071 0.7071 -0.7071 718.5395 2390.2791)" opacity="0.26" fill="#FFFFFF" width="26.9" height="1485.6"/>
	
		<rect x="821.9" y="284.5" transform="matrix(-0.7071 -0.7071 0.7071 -0.7071 699.5248 2344.3738)" opacity="0.22" fill="#FFFFFF" width="26.9" height="1485.6"/>
	
		<rect x="802.8" y="265.5" transform="matrix(-0.7071 -0.7071 0.7071 -0.7071 680.5101 2298.4683)" opacity="0.18" fill="#FFFFFF" width="26.9" height="1485.6"/>
	
		<rect x="783.8" y="246.5" transform="matrix(-0.7071 -0.7071 0.7071 -0.7071 661.4955 2252.563)" opacity="0.14" fill="#FFFFFF" width="26.9" height="1485.6"/>
	
		<rect x="764.8" y="227.5" transform="matrix(-0.7071 -0.7071 0.7071 -0.7071 642.481 2206.6577)" opacity="0.1" fill="#FFFFFF" width="26.9" height="1485.6"/>
	
		<rect x="745.8" y="208.4" transform="matrix(-0.7071 -0.7071 0.7071 -0.7071 623.4664 2160.7522)" opacity="6.000000e-02" fill="#FFFFFF" width="26.9" height="1485.6"/>
	
		<rect x="726.8" y="189.4" transform="matrix(-0.7071 -0.7071 0.7071 -0.7071 604.4517 2114.8469)" opacity="2.000000e-02" fill="#FFFFFF" width="26.9" height="1485.6"/>
</g>
</svg>
