<?xml version="1.0" encoding="utf-8"?>
<!-- Generator: Adobe Illustrator 15.0.2, SVG Export Plug-In . SVG Version: 6.00 Build 0)  -->
<!DOCTYPE svg PUBLIC "-//W3C//DTD SVG 1.1//EN" "http://www.w3.org/Graphics/SVG/1.1/DTD/svg11.dtd">
<svg version="1.1" id="Layer_1" xmlns="http://www.w3.org/2000/svg" xmlns:xlink="http://www.w3.org/1999/xlink" x="0px" y="0px"
	 width="333.033px" height="125.793px" viewBox="0 0 333.033 125.793" enable-background="new 0 0 333.033 125.793"
	 xml:space="preserve">
<path display="none" d="M816.338,386.557c4.193,0,6.629,3.154,6.629,6.333c0,3.178-2.436,6.33-6.629,6.33
	c-4.199,0-6.631-3.152-6.631-6.33C809.708,389.711,812.139,386.557,816.338,386.557z M816.338,396.786
	c2.258,0,3.895-1.738,3.895-3.896c0-2.16-1.637-3.899-3.895-3.899c-2.262,0-3.897,1.739-3.897,3.899
	C812.441,395.048,814.077,396.786,816.338,396.786z"/>
<path display="none" d="M826.019,387.567c0-0.265,0.293-0.701,0.768-0.701c0.089,0,0.425,0,1.031,0c0.495,0,0.784,0.402,0.784,0.785
	c0,0.197,0,5.959,0,5.959c0,1.762,1.29,3.027,2.902,3.027c1.614,0,2.907-1.266,2.907-3.027c0,0,0-5.809,0-6.007
	c0-0.382,0.353-0.734,0.751-0.734c0.092,0,0.481,0,1.09,0c0.402,0,0.739,0.382,0.739,0.755c0,0.158,0,6.211,0,6.211
	c0,3.373-2.631,5.385-5.487,5.385c-2.853,0-5.485-2.012-5.485-5.385C826.019,393.835,826.019,387.785,826.019,387.567z"/>
<path display="none" d="M798.177,387.64c0-0.424-0.348-0.771-0.771-0.771h-0.896c-0.423,0-0.77,0.348-0.77,0.771v0.655h-0.047
	c-0.845-1.116-2.135-1.738-3.746-1.738c-3.206,0-6.134,2.261-6.134,6.208c0,3.799,2.73,6.133,5.835,6.133
	c1.76,0,3.003-0.646,4.095-1.861v0.793c0,1.838-1.342,3.553-3.973,3.553c-0.608,0-1.189-0.201-1.684-0.484
	c-1.774-1.016-3.258,0.533-3.258,0.533c0.511,0.633,1.119,1.127,1.765,1.494c1.077,0.615,2.262,0.889,3.3,0.889
	c3.255,0,6.282-2.285,6.282-6.256c0,0,0-7.715,0-9.221c0-0.004,0.001-0.008,0.001-0.012V387.64z M792.167,396.464
	c-2.182,0-3.622-1.664-3.622-3.748c0-2.062,1.611-3.726,3.622-3.726c1.962,0,3.577,1.664,3.577,3.751
	C795.744,394.8,794.253,396.464,792.167,396.464z"/>
<path display="none" d="M807.745,386.77c-0.307-0.132-0.688-0.213-1.108-0.213c-1.041,0-1.935,0.648-2.356,1.64h-0.049v-0.557
	c0-0.424-0.348-0.771-0.771-0.771h-0.892c-0.423,0-0.77,0.348-0.77,0.771v7.221c0,0.021,0.001,0.043,0.002,0.064v1.637
	c0,1.287,1.054,2.34,2.341,2.34h0.239c0,0,0-0.002,0-0.004h0.001v-7.945c0-1.092,0.842-1.812,1.785-1.812
	c0.175,0,0.4,0.062,0.64,0.174c0.101,0.049,0.371,0.056,0.465-0.223c0.21-0.59,0.628-1.746,0.686-1.895
	C808.039,386.998,807.859,386.816,807.745,386.77z"/>
<path display="none" d="M847.18,386.557c-1.639,0-3.029,0.648-3.945,1.788h-0.05h-0.005c0-0.006,0.002-0.013,0.002-0.02v-0.686
	c0-0.424-0.346-0.771-0.769-0.771h-1.043c-0.423,0-0.77,0.348-0.77,0.771v0.686c0,0.005,0.001,0.009,0.001,0.014v10.828
	c0,0.029,0.002,0.059,0.003,0.086v1.463c0,1.287,1.053,2.34,2.341,2.34h0.239c0,0,0-0.004,0-0.012l0,0v-5.611h0.05
	c0.67,1.018,2.035,1.787,3.821,1.787c3.898,0,6.358-3.375,6.358-6.33C853.415,389.785,851.128,386.557,847.18,386.557z
	 M846.859,396.786c-2.038,0-3.774-1.738-3.774-3.896c0-2.16,1.736-3.899,3.774-3.899c2.085,0,3.822,1.739,3.822,3.899
	C850.681,395.048,848.944,396.786,846.859,396.786z"/>
<path d="M59.225,39.836c-1.955,0.711-6.438,2.348-6.902,2.567c-1.221,0.577-2.07,1.822-2.07,3.257v3.205h0.007v21.43
	c0,5.852,4.789,10.639,10.641,10.639h1.087c0,0,0-38.612,0-39.648C61.986,40.25,60.533,39.36,59.225,39.836z M61.924,33.716v-2.098
	c0-1.979-1.58-3.601-3.56-3.601h-4.512c-1.98,0-3.6,1.621-3.6,3.601v8.366c0,0,9.418-3.424,9.843-3.617
	C61.082,35.917,61.924,34.96,61.924,33.716z"/>
<path d="M159.918,62.733l-2.517-3.609c-1.989-2.817-5.124-4.366-8.343-4.479c-0.021,0-0.039-0.006-0.06-0.006h-0.074
	c-0.138-0.002-0.276-0.002-0.414,0h-9.665c-5.852,0-10.639,4.177-10.639,9.281v0.947h15.042c3.361,0.092,6.338,1.758,8.226,4.285
	l5.568,7.929c3.052,4.338,8.771,6.057,13.584,2.846c0.642-0.397,0.943-0.699,0.943-0.699L159.918,62.733z M151.848,38.424
	c1.64,0.013,8.729,0.646,8.729,8.171c0,2.718-0.805,3.806-1.197,4.291c-0.003,0.003-0.006,0.007-0.009,0.011
	c-0.083,0.103-0.139,0.18-0.139,0.18c-0.265,0.32-0.944,0.809-1.155,1.923c-0.209,1.104,0.271,1.704,1.099,2.851
	c1.112,1.541,3.484,4.75,3.484,4.75s1.882-1.063,3.323-2.109l0.425-0.297l0.081-0.068l0.001,0.002
	c0.084-0.068,0.191-0.16,0.308-0.262l0.104-0.088v-0.005c1.513-1.355,4.453-4.672,4.453-11.178
	c0-15.296-14.004-18.567-19.702-18.567c-0.418,0-0.757,0-1.034,0c-0.03-0.001-0.059-0.01-0.09-0.01h-19.799
	c-2.027,0-3.647,1.621-3.647,3.601v3.205c0,1.979,1.62,3.601,3.6,3.601H151.848z"/>
<path d="M119.406,31.619c0-1.979-1.621-3.601-3.601-3.601h-14.479c2.781,3.078,3.201,5.632,3.452,7.4
	c0.095,0.666,0.528,1.446,1.049,1.985c0.772,0.8,1.959,0.981,2.608,1.021h7.372c1.98,0,3.6-1.621,3.6-3.601L119.406,31.619z
	 M95.351,28.034c-0.14-0.005-0.273-0.014-0.418-0.016h-18.83c-1.98,0-3.6,1.621-3.6,3.601v3.205c0,1.979,1.62,3.601,3.6,3.601
	h10.363c1.912,0.023,3.468,1.556,3.543,3.456v28.415c0,5.852,4.789,10.639,10.641,10.639h1.087v-32c0-0.021-0.005-0.045-0.004-0.066
	c0-0.016,0.003-0.03,0.004-0.045v-6.89c0-0.004,0.001-0.008,0.001-0.012v-3.091c-0.032-1.646-0.182-3.909-0.796-5.592
	C100.028,30.735,97.999,28.368,95.351,28.034z"/>
<g>
	<path d="M205.744,68.149v9.785h-2.681v-7.5c0-1.494-0.2-2.536-0.601-3.127s-1.099-0.887-2.095-0.887
		c-0.557,0-1.067,0.127-1.531,0.381s-0.993,0.703-1.589,1.348v9.785h-2.666V64.458h2.666v1.772c1.357-1.357,2.686-2.036,3.984-2.036
		c1.709,0,3.032,0.811,3.97,2.432c1.426-1.641,2.915-2.461,4.468-2.461c1.309,0,2.385,0.479,3.229,1.436s1.268,2.417,1.268,4.38
		v7.954h-2.666v-7.983c0-1.123-0.229-1.982-0.688-2.578s-1.118-0.894-1.978-0.894C207.731,66.479,206.701,67.036,205.744,68.149z"/>
	<path d="M224.274,64.428c2.051,0,3.755,0.662,5.112,1.984c1.357,1.324,2.036,2.986,2.036,4.988c0,1.943-0.688,3.558-2.065,4.842
		s-3.11,1.926-5.2,1.926c-2.021,0-3.711-0.652-5.068-1.955c-1.357-1.305-2.036-2.933-2.036-4.886c0-1.973,0.686-3.615,2.059-4.929
		C220.482,65.085,222.204,64.428,224.274,64.428z M224.128,66.831c-1.279,0-2.329,0.42-3.149,1.26s-1.23,1.909-1.23,3.208
		c0,1.289,0.42,2.342,1.26,3.157s1.919,1.223,3.237,1.223c1.309,0,2.38-0.412,3.216-1.238c0.834-0.824,1.252-1.882,1.252-3.171
		c0-1.279-0.435-2.339-1.304-3.179S225.446,66.831,224.128,66.831z"/>
	<path d="M234.265,57.47h2.666v7.954c1.152-0.84,2.383-1.26,3.691-1.26c1.709,0,3.105,0.645,4.189,1.934s1.626,2.944,1.626,4.966
		c0,2.168-0.647,3.895-1.941,5.179s-3.024,1.926-5.192,1.926c-0.869,0-1.785-0.093-2.747-0.278s-1.726-0.42-2.292-0.703V57.47z
		 M236.931,67.973v7.295c0.908,0.273,1.841,0.41,2.798,0.41c1.182,0,2.146-0.42,2.893-1.26c0.748-0.84,1.121-1.919,1.121-3.237
		c0-1.338-0.35-2.427-1.047-3.267c-0.699-0.84-1.609-1.26-2.732-1.26C238.967,66.655,237.956,67.094,236.931,67.973z"/>
	<path d="M250.759,58.789c0.439,0,0.815,0.151,1.128,0.454s0.469,0.674,0.469,1.113c0,0.43-0.156,0.801-0.469,1.113
		s-0.688,0.469-1.128,0.469c-0.41,0-0.771-0.158-1.084-0.477c-0.312-0.316-0.469-0.686-0.469-1.105c0-0.41,0.156-0.773,0.469-1.092
		C249.987,58.948,250.349,58.789,250.759,58.789z M249.44,64.458h2.666v13.477h-2.666V64.458z"/>
	<path d="M256.018,57.47h2.666v20.464h-2.666V57.47z"/>
	<path d="M263.913,58.789c0.439,0,0.815,0.151,1.128,0.454s0.469,0.674,0.469,1.113c0,0.43-0.156,0.801-0.469,1.113
		s-0.688,0.469-1.128,0.469c-0.41,0-0.771-0.158-1.084-0.477c-0.312-0.316-0.469-0.686-0.469-1.105c0-0.41,0.156-0.773,0.469-1.092
		C263.142,58.948,263.503,58.789,263.913,58.789z M262.595,64.458h2.666v13.477h-2.666V64.458z"/>
	<path d="M267.224,66.596l5.01-4.922v2.783h4.263v2.402h-4.263v6.596c0,1.54,0.64,2.311,1.919,2.311
		c0.957,0,1.968-0.317,3.032-0.952v2.49c-1.025,0.576-2.144,0.864-3.354,0.864c-1.221,0-2.236-0.356-3.047-1.069
		c-0.254-0.215-0.464-0.456-0.63-0.726c-0.166-0.268-0.306-0.619-0.418-1.055c-0.112-0.434-0.168-1.262-0.168-2.482V66.86h-2.344
		V66.596z"/>
	<path d="M287.377,64.458h2.991l-9.549,20.347h-2.976l4.574-9.764l-5.204-10.583h3.038l3.639,7.612L287.377,64.458z"/>
</g>
</svg>
