<?xml version="1.0" encoding="utf-8"?>
<!-- Generator: Adobe Illustrator 18.1.1, SVG Export Plug-In . SVG Version: 6.00 Build 0)  -->
<!DOCTYPE svg PUBLIC "-//W3C//DTD SVG 1.1//EN" "http://www.w3.org/Graphics/SVG/1.1/DTD/svg11.dtd">
<svg version="1.1" xmlns="http://www.w3.org/2000/svg" xmlns:xlink="http://www.w3.org/1999/xlink" x="0px" y="0px"
	 viewBox="0 0 389.3 151.3" enable-background="new 0 0 389.3 151.3" xml:space="preserve">
<g id="Layer_1">
	<g>
		<g>
			<g>
				<path fill="#FFFFFF" d="M253.1,21.4h-18.6v49.3h-1.9V21.4h-18.6v-1.9h39.2V21.4z"/>
				<path fill="#FFFFFF" d="M344.9,68.8h28.3v1.9H343V19.5h1.9V68.8z"/>
				<path fill="#FFFFFF" d="M253.1,83.4h-18.6v49.3h-1.9V83.4h-18.6v-1.9h39.2V83.4z"/>
				<path fill="#FFFFFF" d="M265.4,132.7h-1.9V81.5h1.9V132.7z"/>
				<path fill="#FFFFFF" d="M283.5,81.5l21.1,48.4l21.1-48.4h2.8v51.2h-1.9V84.3l-21.2,48.4h-1.5l-21.1-48.1v48.1h-1.9V81.5H283.5z"
					/>
				<path fill="#FFFFFF" d="M370.1,107.3h-25.7v23.5h29.2v1.9h-31.1V81.5h31.1v1.9h-29.2v22h25.7V107.3z"/>
			</g>
		</g>
		<g>
			<path fill="#FFFFFF" d="M99.8,19.3v76c0,12.1-3.9,21.7-11.6,28.7c-7.7,7.1-18,10.6-30.9,10.6c-13,0-23.4-3.5-31-10.4
				s-11.5-16.6-11.5-28.9V19.3h19.7v76c0,7.6,1.9,13.4,5.8,17.4c3.9,4,9.5,6,17,6c15.2,0,22.8-8,22.8-24V19.3H99.8z"/>
			<path fill="#FFFFFF" d="M160,60.4l23.9-41.1h22.8l-34.4,56.4l35.2,57.3h-23L160,91.4l-24.5,41.7h-23l35.2-57.3l-34.5-56.4h22.8
				L160,60.4z"/>
		</g>
		<g>
			<path fill="#FFFFFF" d="M389.3,151.3H0V0h389.3V151.3z M3.9,147.3h381.5V4H3.9V147.3z"/>
		</g>
		<g>
			<path fill="#FFFFFF" d="M323.2,70.6h-25.9l-12.9-25.3L297.3,20h25.9l12.9,25.3L323.2,70.6z M298.5,68.6H322l11.8-23.3L322,22
				h-23.5l-11.8,23.3L298.5,68.6z"/>
		</g>
		<g>
			<path fill="#FFFFFF" d="M288.5,70.6h-25.9l-12.9-25.3L262.5,20h25.9l12.9,25.3L288.5,70.6z M263.8,68.6h23.5l11.8-23.3L287.3,22
				h-23.5l-11.8,23.3L263.8,68.6z"/>
		</g>
	</g>
</g>
<g id="Layer_2">
</g>
</svg>
